<?xml version="1.0" encoding="UTF-8"?>
<svg width="55px" height="55px" viewBox="0 0 55 55" version="1.1" xmlns="http://www.w3.org/2000/svg" xmlns:xlink="http://www.w3.org/1999/xlink">
    <!-- Generator: Sketch 61 (89581) - https://sketch.com -->
    <title>iconfinder_behance__social__media_2986188 copy</title>
    <desc>Created with Sketch.</desc>
    <g id="Page-1" stroke="none" stroke-width="1" fill="none" fill-rule="evenodd">
        <g id="ABOUT" transform="translate(-889.000000, -2719.000000)" fill="#FFFFFF">
            <g id="contacto" transform="translate(809.000000, 2497.000000)">
                <g id="iconfinder_behance__social__media_2986188-copy" transform="translate(80.000000, 222.000000)">
                    <path d="M22,22.49775 C22,21.116125 20.9594668,20 19.6914671,20 L14,20 L14,25 L19.6915816,25 C20.9594668,25 22,23.881125 22,22.49775 Z" id="Path"></path>
                    <path d="M19.607864,29 L14,29 L14,35 L20.7610482,35 C22.0091567,35 23,33.44696 23,32.11748 C23,29.56628 20.8570999,29 19.607864,29 Z" id="Path"></path>
                    <path d="M47.9507187,0 C45.3682396,0 31.7344271,0 7.04928125,0 C3.17590625,0 0,3.17602083 0,7.04939583 L0,47.9504896 C0,51.8238646 3.17590625,55 7.04928125,55 L47.9506042,55 C51.8244375,55 55,51.8238646 55,47.9506042 L55,7.04939583 C55,3.17602083 51.8244375,0 47.9507187,0 Z M32.0833333,17.1875 L42.3958333,17.1875 L42.3958333,20.625 L32.0833333,20.625 L32.0833333,17.1875 Z M20.6217917,38.9583333 L9.16666667,38.9583333 L9.16666667,16.0416667 L20.6217917,16.0416667 C23.7752396,16.0416667 26.343625,18.6004271 26.343625,21.7875625 C26.343625,23.8353958 25.2383542,25.6493646 23.612875,26.6568958 C25.8556146,27.4366354 27.5153542,29.5724687 27.5153542,32.0758854 C27.5153542,35.8768437 24.3925,38.9583333 20.6217917,38.9583333 Z M45.8333333,30.9375 L33.2384479,30.9375 C33.3996667,33.4583333 35.0905729,35.5243854 37.269375,35.5243854 C39.4141458,35.5243854 40.6186458,34.1458333 41.041,32.0833333 L45.6903333,32.0833333 C44.9105937,35.9791667 42.4391458,38.9724271 37.269375,38.9724271 C32.0672917,38.9724271 28.65225,35.1377812 28.65225,30.3595417 C28.65225,25.6128125 32.0573229,21.7805729 37.2594062,21.7805729 C42.4291771,21.7805729 45.8333333,25.6129271 45.8333333,30.3587396 C45.8333333,30.5525 45.8333333,30.7083333 45.8333333,30.9375 Z" id="Shape"></path>
                    <path d="M37.5157193,26 C35.653435,26 34.2419816,27.1874937 34,29 L41,29 C40.698952,27.1874937 39.347306,26 37.5157193,26 Z" id="Path"></path>
                </g>
            </g>
        </g>
    </g>
</svg>