<?xml version="1.0" encoding="UTF-8"?>
<svg width="55px" height="55px" viewBox="0 0 55 55" version="1.1" xmlns="http://www.w3.org/2000/svg" xmlns:xlink="http://www.w3.org/1999/xlink">
    <!-- Generator: Sketch 61 (89581) - https://sketch.com -->
    <title>15023478381530099611</title>
    <desc>Created with Sketch.</desc>
    <g id="Page-1" stroke="none" stroke-width="1" fill="none" fill-rule="evenodd">
        <g id="ABOUT" transform="translate(-809.000000, -2497.000000)" fill-rule="nonzero">
            <g id="contacto" transform="translate(809.000000, 2497.000000)">
                <g id="15023478381530099611">
                    <path d="M6.11111111,55 L48.8888889,55 C52.2639624,55 55,52.2639624 55,48.8888889 L55,6.11111111 C55,2.73603764 52.2639624,0 48.8888889,0 L6.11111111,0 C2.73603764,0 0,2.73603764 0,6.11111111 L0,48.8888889 C0,52.2639624 2.73603764,55 6.11111111,55 Z" id="Rounded" fill="#FFFFFF"></path>
                    <path d="M14,19.6731142 L14,35.4463939 C14,36.3045164 14.6143554,37 15.4607422,37 L39.5392578,37 C40.3847656,37 41,36.2964294 41,35.4463939 L41,19.6731142 C41,18.7314259 40.4498047,18 39.5392578,18 L15.4607422,18 C14.515039,18 14,18.749397 14,19.6731142 M16.2201172,21.0470088 C16.2201172,20.6669189 16.4451172,20.4494679 16.8045898,20.4494679 C17.0269531,20.4494679 25.7764648,26.1175692 26.3064453,26.4500355 L27.6757812,27.3207377 C28.1099609,27.0233152 28.5458984,26.7690234 28.9958985,26.4608182 C29.9143555,25.8605817 38.0864258,20.4494679 38.3114258,20.4494679 C38.6717773,20.4494679 38.8958985,20.6669189 38.8958985,21.0470088 C38.8958985,21.4495625 38.1374023,21.8494206 37.6434571,22.1576259 C34.540039,24.0913218 31.4375,26.1993379 28.3648437,28.2049184 C28.1855469,28.3289194 27.8383789,28.5939938 27.5782227,28.5535587 C27.2881836,28.5077323 18.3848633,22.6599196 16.7650391,21.6858832 C16.521582,21.5394183 16.2201172,21.4055332 16.2201172,21.0470088" id="Shape" fill="#284B59"></path>
                </g>
            </g>
        </g>
    </g>
</svg>