<?xml version="1.0" encoding="UTF-8"?>
<svg width="55px" height="55px" viewBox="0 0 55 55" version="1.1" xmlns="http://www.w3.org/2000/svg" xmlns:xlink="http://www.w3.org/1999/xlink">
    <!-- Generator: Sketch 61 (89581) - https://sketch.com -->
    <title>8350426161530099616</title>
    <desc>Created with Sketch.</desc>
    <g id="Page-1" stroke="none" stroke-width="1" fill="none" fill-rule="evenodd">
        <g id="ABOUT" transform="translate(-1027.000000, -2992.000000)" fill-rule="nonzero">
            <g id="footer-copy" transform="translate(0.000000, 2956.000000)">
                <g id="dentro-de-footer" transform="translate(279.000000, 36.000000)">
                    <g id="8350426161530099616" transform="translate(748.000000, 0.000000)">
                        <path d="M6.11111111,55 L48.8888889,55 C52.2639624,55 55,52.2639624 55,48.8888889 L55,6.11111111 C55,2.73603764 52.2639624,0 48.8888889,0 L6.11111111,0 C2.73603764,0 0,2.73603764 0,6.11111111 L0,48.8888889 C0,52.2639624 2.73603764,55 6.11111111,55 Z" id="Rounded" fill="#5B5B5B"></path>
                        <path d="M27.5000367,9 C32.5242984,9 33.1543046,9.02129643 35.1275263,9.11132876 C37.0966357,9.20114086 38.4414666,9.51390418 39.618203,9.9712628 C40.8347415,10.4439694 41.866442,11.076546 42.8949847,12.1050153 C43.923454,13.133558 44.5560306,14.1652585 45.0288107,15.381797 C45.4860958,16.5585334 45.7988591,17.9033643 45.8886712,19.8724737 C45.9787036,21.8456954 46,22.4757016 46,27.5000367 C46,32.5242984 45.9787036,33.1543046 45.8886712,35.1275263 C45.7988591,37.0966357 45.4860958,38.4414666 45.0288107,39.618203 C44.5560306,40.8347415 43.923454,41.866442 42.8949847,42.8949847 C41.866442,43.923454 40.8347415,44.5560306 39.618203,45.0288107 C38.4414666,45.4860958 37.0966357,45.7988591 35.1275263,45.8886712 C33.1543046,45.9787036 32.5242984,46 27.5000367,46 C22.4757016,46 21.8456954,45.9787036 19.8724737,45.8886712 C17.9033643,45.7988591 16.5585334,45.4860958 15.381797,45.0288107 C14.1652585,44.5560306 13.133558,43.923454 12.1050153,42.8949847 C11.076546,41.866442 10.4439694,40.8347415 9.9712628,39.618203 C9.51390418,38.4414666 9.20114086,37.0966357 9.11132876,35.1275263 C9.02129643,33.1543046 9,32.5242984 9,27.5000367 C9,22.4757016 9.02129643,21.8456954 9.11132876,19.8724737 C9.20114086,17.9033643 9.51390418,16.5585334 9.9712628,15.381797 C10.4439694,14.1652585 11.076546,13.133558 12.1050153,12.1050153 C13.133558,11.076546 14.1652585,10.4439694 15.381797,9.9712628 C16.5585334,9.51390418 17.9033643,9.20114086 19.8724737,9.11132876 C21.8456954,9.02129643 22.4757016,9 27.5000367,9 Z M27.5000367,12.3333274 C22.5602998,12.3333274 21.9751628,12.3522004 20.0244125,12.4412047 C18.2206807,12.5234528 17.2411197,12.8248336 16.5892296,13.0781873 C15.7256972,13.4137893 15.1094234,13.8146756 14.4620862,14.4620862 C13.8146756,15.1094234 13.4137893,15.7256972 13.0781873,16.5892296 C12.8248336,17.2411197 12.5234528,18.2206807 12.4412047,20.0244125 C12.3522004,21.9751628 12.3333274,22.5602998 12.3333274,27.5000367 C12.3333274,32.4397002 12.3522004,33.0248372 12.4412047,34.9755875 C12.5234528,36.7793193 12.8248336,37.7588803 13.0781873,38.4107704 C13.4137893,39.2743028 13.8147491,39.8905766 14.4620862,40.5379138 C15.1094234,41.1853244 15.7256972,41.5862107 16.5892296,41.9218127 C17.2411197,42.1751664 18.2206807,42.4765472 20.0244125,42.5587953 C21.9749425,42.6477996 22.5599326,42.6666726 27.5000367,42.6666726 C32.4400674,42.6666726 33.0251309,42.6477996 34.9755875,42.5587953 C36.7793193,42.4765472 37.7588803,42.1751664 38.4107704,41.9218127 C39.2743028,41.5862107 39.8905766,41.1853244 40.5379138,40.5379138 C41.1853244,39.8905766 41.5862107,39.2743028 41.9218127,38.4107704 C42.1751664,37.7588803 42.4765472,36.7793193 42.5587953,34.9755875 C42.6477996,33.0248372 42.6666726,32.4397002 42.6666726,27.5000367 C42.6666726,22.5602998 42.6477996,21.9751628 42.5587953,20.0244125 C42.4765472,18.2206807 42.1751664,17.2411197 41.9218127,16.5892296 C41.5862107,15.7256972 41.1853244,15.1094234 40.5379138,14.4620862 C39.8905766,13.8146756 39.2743028,13.4137893 38.4107704,13.0781873 C37.7588803,12.8248336 36.7793193,12.5234528 34.9755875,12.4412047 C33.0248372,12.3522004 32.4397002,12.3333274 27.5000367,12.3333274 Z M27.5000367,18.000006 C32.7467356,18.000006 36.999994,22.2532644 36.999994,27.5000367 C36.999994,32.7467356 32.7467356,36.999994 27.5000367,36.999994 C22.2532644,36.999994 18.000006,32.7467356 18.000006,27.5000367 C18.000006,22.2532644 22.2532644,18.000006 27.5000367,18.000006 Z M27.5000367,33.6666667 C30.9057718,33.6666667 33.6666667,30.9057718 33.6666667,27.5000367 C33.6666667,24.0942282 30.9057718,21.3333333 27.5000367,21.3333333 C24.0942282,21.3333333 21.3333333,24.0942282 21.3333333,27.5000367 C21.3333333,30.9057718 24.0942282,33.6666667 27.5000367,33.6666667 Z M39.5953644,17.6246753 C39.5953644,18.8507604 38.6014099,19.8446415 37.3753247,19.8446415 C36.1493129,19.8446415 35.1553585,18.8507604 35.1553585,17.6246753 C35.1553585,16.3985901 36.1493129,15.4046356 37.3753247,15.4046356 C38.6014099,15.4046356 39.5953644,16.3985901 39.5953644,17.6246753 Z" id="Shape" fill="#FFFFFF"></path>
                    </g>
                </g>
            </g>
        </g>
    </g>
</svg>