<?xml version="1.0" encoding="UTF-8"?>
<svg width="55px" height="55px" viewBox="0 0 55 55" version="1.1" xmlns="http://www.w3.org/2000/svg" xmlns:xlink="http://www.w3.org/1999/xlink">
    <!-- Generator: Sketch 61 (89581) - https://sketch.com -->
    <title>19768422391530099617</title>
    <desc>Created with Sketch.</desc>
    <g id="Page-1" stroke="none" stroke-width="1" fill="none" fill-rule="evenodd">
        <g id="ABOUT" transform="translate(-1106.000000, -2992.000000)" fill-rule="nonzero">
            <g id="footer-copy" transform="translate(0.000000, 2956.000000)">
                <g id="dentro-de-footer" transform="translate(279.000000, 36.000000)">
                    <g id="19768422391530099617" transform="translate(827.000000, 0.000000)">
                        <path d="M6.11111111,55 L48.8888889,55 C52.2639624,55 55,52.2639624 55,48.8888889 L55,6.11111111 C55,2.73603764 52.2639624,0 48.8888889,0 L6.11111111,0 C2.73603764,0 0,2.73603764 0,6.11111111 L0,48.8888889 C0,52.2639624 2.73603764,55 6.11111111,55 Z" id="Rounded" fill="#5B5B5B"></path>
                        <path d="M47,47 L38.78125,47 L38.78125,33.0016268 C38.78125,29.1636571 37.3229167,27.018871 34.2851562,27.018871 C30.9804688,27.018871 29.2539062,29.2508541 29.2539062,33.0016268 L29.2539062,47 L21.3333333,47 L21.3333333,20.3333333 L29.2539062,20.3333333 L29.2539062,23.9253295 C29.2539062,23.9253295 31.6354167,19.518627 37.2942708,19.518627 C42.9505208,19.518627 47,22.9726696 47,30.1163169 L47,47 Z M11.8841146,16.8415487 C9.18619792,16.8415487 7,14.6381975 7,11.9207744 C7,9.20335123 9.18619792,7 11.8841146,7 C14.5820312,7 16.7669271,9.20335123 16.7669271,11.9207744 C16.7669271,14.6381975 14.5820312,16.8415487 11.8841146,16.8415487 Z M7.79427085,47 L16.0533854,47 L16.0533854,20.3333333 L7.79427085,20.3333333 L7.79427085,47 Z" id="Shape" fill="#FFFFFF"></path>
                    </g>
                </g>
            </g>
        </g>
    </g>
</svg>