<?xml version="1.0" encoding="UTF-8"?>
<svg width="55px" height="55px" viewBox="0 0 55 55" version="1.1" xmlns="http://www.w3.org/2000/svg" xmlns:xlink="http://www.w3.org/1999/xlink">
    <!-- Generator: Sketch 61 (89581) - https://sketch.com -->
    <title>iconfinder_Rounded_Medium3_svg_5282543 Copy</title>
    <desc>Created with Sketch.</desc>
    <g id="Page-1" stroke="none" stroke-width="1" fill="none" fill-rule="evenodd">
        <g id="ABOUT" transform="translate(-948.000000, -2992.000000)" fill="#5B5B5B">
            <g id="footer-copy" transform="translate(0.000000, 2956.000000)">
                <g id="dentro-de-footer" transform="translate(279.000000, 36.000000)">
                    <g id="iconfinder_Rounded_Medium3_svg_5282543-Copy" transform="translate(669.000000, 0.000000)">
                        <path d="M48.280332,0 C51.9890723,0 55,3.01103516 55,6.71966797 L55,48.280332 C55,51.9889648 51.9889648,55 48.280332,55 L6.71966797,55 C3.01103516,55 0,51.9889648 0,48.280332 L0,6.71966797 C0,3.01103516 3.01092773,0 6.71966797,0 L48.280332,0 Z M46.1853906,14.7512793 L35.4974512,14.7512793 L27.8784473,33.757002 L19.2125098,14.7512793 L8.00088867,14.7512793 L8.00088867,15.4010742 L11.6117676,19.7509082 C11.9663672,20.0703809 12.1472656,20.539707 12.0991406,21.0144043 L12.0991406,38.1067285 C12.2041992,38.7232227 12.0099805,39.3531445 11.5757813,39.8033496 L7.51351563,44.7305762 L7.51351563,45.3802637 L19.032041,45.3802637 L19.032041,44.7305762 L14.9697754,39.8033496 C14.5322461,39.3541113 14.3258887,38.7282715 14.4101074,38.1067285 L14.4101074,23.3247266 L24.5205469,45.3802637 L25.6940234,45.3802637 L34.3780078,23.3247266 L34.3780078,40.9044238 C34.3780078,41.3735352 34.3780078,41.463877 34.0709961,41.7705664 L30.9477051,44.8029785 L30.9477051,45.452666 L46.1129883,45.452666 L46.1129883,44.8029785 L43.0980859,41.8428613 C42.8318945,41.6400488 42.699873,41.3065039 42.7549805,40.9765039 L42.7549805,19.2275488 C42.699873,18.8974414 42.8318945,18.5638965 43.0980859,18.361084 L46.1853906,15.4010742 L46.1853906,14.7512793 L46.1853906,14.7512793 Z" id="Shape"></path>
                    </g>
                </g>
            </g>
        </g>
    </g>
</svg>