<?xml version="1.0" encoding="UTF-8"?>
<svg width="78px" height="68px" viewBox="0 0 78 68" version="1.1" xmlns="http://www.w3.org/2000/svg" xmlns:xlink="http://www.w3.org/1999/xlink">
    <!-- Generator: Sketch 61 (89581) - https://sketch.com -->
    <title>noun_menu_1166835</title>
    <desc>Created with Sketch.</desc>
    <g id="Page-1" stroke="none" stroke-width="1" fill="none" fill-rule="evenodd">
        <g id="proyecto-JMC" transform="translate(-361.000000, -707.000000)" fill="#000000" fill-rule="nonzero">
            <g id="noun_menu_1166835" transform="translate(361.000000, 707.000000)">
                <path d="M73.7,37.7 L4.1,37.7 C2,37.7 0.3,36 0.3,33.9 L0.3,33.9 C0.3,31.8 2,30.1 4.1,30.1 L73.8,30.1 C75.9,30.1 77.6,31.8 77.6,33.9 L77.6,33.9 C77.6,36 75.9,37.7 73.7,37.7 Z" id="Path"></path>
                <path d="M73.7,7.7 L4.1,7.7 C2,7.7 0.3,6 0.3,3.9 L0.3,3.9 C0.3,1.8 2,0.1 4.1,0.1 L73.8,0.1 C75.9,0.1 77.6,1.8 77.6,3.9 L77.6,3.9 C77.6,6 75.9,7.7 73.7,7.7 Z" id="Path"></path>
                <path d="M73.7,67.7 L4.1,67.7 C2,67.7 0.3,66 0.3,63.9 L0.3,63.9 C0.3,61.8 2,60.1 4.1,60.1 L73.8,60.1 C75.9,60.1 77.6,61.8 77.6,63.9 L77.6,63.9 C77.6,66 75.9,67.7 73.7,67.7 Z" id="Path"></path>
            </g>
        </g>
    </g>
</svg>