<?xml version="1.0" encoding="UTF-8"?>
<svg width="55px" height="55px" viewBox="0 0 55 55" version="1.1" xmlns="http://www.w3.org/2000/svg" xmlns:xlink="http://www.w3.org/1999/xlink">
    <!-- Generator: Sketch 61 (89581) - https://sketch.com -->
    <title>Group 2</title>
    <desc>Created with Sketch.</desc>
    <g id="Page-1" stroke="none" stroke-width="1" fill="none" fill-rule="evenodd">
        <g id="ABOUT" transform="translate(-809.000000, -2584.000000)">
            <g id="contacto" transform="translate(809.000000, 2497.000000)">
                <g id="Group-2" transform="translate(0.000000, 87.000000)">
                    <rect id="Rectangle" fill="#FFFFFF" x="0" y="0" width="55" height="55" rx="5"></rect>
                    <g id="8216011891543238910" transform="translate(13.000000, 13.000000)"></g>
                    <path d="M42.999058,35.4607551 L42.999058,39.9769629 C43.0025059,40.824723 42.6476754,41.6346496 42.0217384,42.2077662 C41.3958014,42.7808828 40.5567685,43.0640742 39.7107666,42.9877681 C35.0691983,42.4844229 30.6106452,40.9014977 26.6933562,38.3661821 C23.0488253,36.054883 19.9588994,32.9710779 17.6430129,29.3337664 C15.0937997,25.406478 13.5073725,20.935117 13.0122539,16.2819257 C12.9360397,15.4402135 13.2178053,14.6052872 13.7887217,13.9811001 C14.3596381,13.3569129 15.1671319,13.0009439 16.0139511,13 L20.5391227,13 C22.0533418,12.9852744 23.3439762,14.0930214 23.5559038,15.5894405 C23.7469008,17.0347271 24.1011108,18.4538105 24.6117772,19.8196219 C25.0261849,20.919883 24.7611306,22.1602313 23.9330015,22.9960214 L22.0173455,24.9078827 C24.1646231,28.6767272 27.2913639,31.7972743 31.0676888,33.9402984 L32.9833448,32.0284371 C33.8207937,31.2019484 35.0636038,30.9374191 36.1660488,31.3510059 C37.534571,31.8606608 38.9564711,32.2141691 40.4046263,32.4047877 C41.9214075,32.6183446 43.0370544,33.9324591 42.999058,35.4607551 Z" id="Path" stroke="#284B59" stroke-width="2" stroke-linecap="round" stroke-linejoin="round"></path>
                </g>
            </g>
        </g>
    </g>
</svg>